<?xml version="1.0" encoding="utf-8"?>
<!-- Generator: Adobe Illustrator 22.0.1, SVG Export Plug-In . SVG Version: 6.00 Build 0)  -->
<svg version="1.1" id="Layer_3" xmlns="http://www.w3.org/2000/svg" xmlns:xlink="http://www.w3.org/1999/xlink" x="0px" y="0px"
	 viewBox="0 0 64 64" style="enable-background:new 0 0 64 64;" xml:space="preserve">
<style type="text/css">
	.st0{fill:#FAF5F5;}
	.st1{fill:#63312D;}
	.st2{fill:#F9A287;}
	.st3{fill:#FCB7A4;}
	.st4{fill:#DB785A;}
	.st5{fill:#E0E0E0;}
	.st6{fill:#84DBFF;}
	.st7{fill:#EFC36A;}
	.st8{fill:#F9DD9D;}
	.st9{fill:#EEC26A;}
	.st10{fill:#A9EBFF;}
	.st11{fill:#52BADB;}
	.st12{fill:#FFFFFF;}
	.st13{fill:#F0EEEE;}
	.st14{fill:#BDBDBD;}
	.st15{fill:#E3DFDF;}
	.st16{fill:#FFE8BB;}
	.st17{fill:#FFF2D2;}
	.st18{fill:#D8C18F;}
	.st19{fill:#EAD194;}
	.st20{fill:#BFA064;}
	.st21{fill:#CCCCCC;}
	.st22{fill:#C5F1FF;}
	.st23{fill:#D3A553;}
	.st24{fill:#67C7E5;}
</style>
<g>
	<rect x="3.083" y="15.562" class="st6" width="53.878" height="27.212"/>
	<polygon class="st10" points="56.961,15.562 5.061,15.562 3.083,15.562 3.083,17.597 3.083,42.773 5.061,42.773 5.061,17.597 
		56.961,17.597 	"/>
	<path class="st1" d="M56.961,43.273H3.083c-0.276,0-0.5-0.224-0.5-0.5V15.562c0-0.276,0.224-0.5,0.5-0.5h53.877
		c0.276,0,0.5,0.224,0.5,0.5v27.212C57.461,43.05,57.237,43.273,56.961,43.273z M3.583,42.273h52.877V16.062H3.583V42.273z"/>
	<rect x="56.961" y="15.562" class="st11" width="3.956" height="27.212"/>
	<path class="st1" d="M60.917,43.273h-3.956c-0.276,0-0.5-0.224-0.5-0.5V15.562c0-0.276,0.224-0.5,0.5-0.5h3.956
		c0.276,0,0.5,0.224,0.5,0.5v27.212C61.417,43.05,61.193,43.273,60.917,43.273z M57.461,42.273h2.956V16.062h-2.956V42.273z"/>
	<rect x="7.736" y="11.566" class="st12" width="41.499" height="26.674"/>
	<path class="st1" d="M49.235,38.74H7.736c-0.276,0-0.5-0.224-0.5-0.5V11.565c0-0.276,0.224-0.5,0.5-0.5h41.499
		c0.276,0,0.5,0.224,0.5,0.5V38.24C49.735,38.517,49.511,38.74,49.235,38.74z M8.236,37.74h40.499V12.065H8.236V37.74z"/>
	<rect x="28.055" y="11.854" class="st1" width="1" height="26.387"/>
	<rect x="11.481" y="16.618" class="st1" width="13.42" height="1"/>
	<rect x="11.481" y="19.789" class="st1" width="13.42" height="1"/>
	<rect x="11.481" y="22.961" class="st1" width="13.42" height="1"/>
	<rect x="11.481" y="26.133" class="st1" width="13.42" height="1"/>
	<rect x="11.481" y="29.305" class="st1" width="13.42" height="1"/>
	<rect x="11.481" y="32.477" class="st1" width="13.42" height="1"/>
	<rect x="32.185" y="16.618" class="st1" width="13.42" height="1"/>
	<rect x="32.185" y="19.789" class="st1" width="13.42" height="1"/>
	<rect x="32.185" y="22.961" class="st1" width="13.42" height="1"/>
	<rect x="32.185" y="26.133" class="st1" width="13.42" height="1"/>
	<rect x="32.185" y="29.305" class="st1" width="13.42" height="1"/>
	<rect x="32.185" y="32.477" class="st1" width="13.42" height="1"/>
	<rect x="49.235" y="11.566" class="st15" width="4.125" height="26.674"/>
	<path class="st1" d="M53.361,38.74h-4.126c-0.276,0-0.5-0.224-0.5-0.5V11.565c0-0.276,0.224-0.5,0.5-0.5h4.126
		c0.276,0,0.5,0.224,0.5,0.5V38.24C53.861,38.517,53.637,38.74,53.361,38.74z M49.735,37.74h3.126V12.065h-3.126V37.74z"/>
	<ellipse class="st2" cx="49.361" cy="39.272" rx="3.761" ry="13.163"/>
	<ellipse transform="matrix(0.5 -0.866 0.866 0.5 -9.3297 62.3839)" class="st2" cx="49.361" cy="39.272" rx="3.761" ry="13.163"/>
	<ellipse transform="matrix(0.866 -0.5 0.5 0.866 -13.0227 29.942)" class="st2" cx="49.361" cy="39.272" rx="13.163" ry="3.761"/>
	<path class="st1" d="M49.361,52.935c-2.768,0-4.261-7.04-4.261-13.663s1.493-13.663,4.261-13.663s4.261,7.04,4.261,13.663
		S52.129,52.935,49.361,52.935z M49.361,26.608c-1.361,0-3.261,4.817-3.261,12.663S48,51.935,49.361,51.935
		s3.261-4.817,3.261-12.663S50.722,26.608,49.361,26.608z"/>
	<path class="st1" d="M58.745,47.116c-0.771,0-1.7-0.134-2.774-0.402c-2.552-0.64-5.655-1.972-8.739-3.753
		c-5.736-3.312-11.086-8.124-9.702-10.521c0.632-1.098,2.436-1.308,5.223-0.61c2.552,0.639,5.656,1.971,8.74,3.752l0,0
		c3.084,1.78,5.79,3.802,7.619,5.692c1.995,2.063,2.716,3.733,2.082,4.829C60.804,46.777,59.973,47.116,58.745,47.116z
		 M39.974,32.426c-0.914,0-1.411,0.223-1.58,0.515c-0.68,1.179,2.543,5.232,9.337,9.155c3.006,1.735,6.018,3.03,8.482,3.647
		c2.599,0.652,3.828,0.355,4.114-0.14c0.285-0.494-0.073-1.708-1.936-3.633c-1.767-1.826-4.395-3.787-7.4-5.523
		c-3.006-1.735-6.019-3.03-8.483-3.647C41.444,32.533,40.608,32.426,39.974,32.426z"/>
	<path class="st1" d="M39.977,47.116c-1.229,0-2.06-0.339-2.448-1.013c-1.384-2.397,3.966-7.21,9.702-10.521l0,0
		c3.084-1.781,6.188-3.113,8.739-3.752c2.784-0.696,4.59-0.486,5.223,0.61c0.634,1.096-0.087,2.766-2.082,4.828
		c-1.829,1.891-4.535,3.912-7.619,5.692c-3.084,1.781-6.188,3.113-8.74,3.753C41.677,46.982,40.749,47.116,39.977,47.116z
		 M58.748,32.426c-0.634,0-1.469,0.107-2.534,0.374c-2.465,0.617-5.478,1.912-8.482,3.647l0,0
		c-6.795,3.923-10.018,7.977-9.337,9.156c0.286,0.495,1.516,0.791,4.114,0.14c2.465-0.617,5.478-1.912,8.483-3.647
		c3.006-1.736,5.634-3.697,7.4-5.522c1.862-1.925,2.221-3.139,1.936-3.633C60.159,32.648,59.662,32.426,58.748,32.426z"/>
	<polygon class="st8" points="47.733,38.332 47.733,40.212 49.361,41.152 50.99,40.212 50.99,38.332 49.361,37.391 	"/>
	<path class="st1" d="M49.361,41.652c-0.086,0-0.173-0.022-0.25-0.067l-1.628-0.94c-0.154-0.089-0.25-0.254-0.25-0.433v-1.881
		c0-0.179,0.096-0.344,0.25-0.433l1.628-0.939c0.154-0.09,0.346-0.089,0.5-0.001l1.629,0.939c0.154,0.09,0.25,0.255,0.25,0.434
		v1.881c0,0.179-0.096,0.344-0.25,0.433l-1.629,0.94C49.534,41.63,49.447,41.652,49.361,41.652z M48.233,39.923l1.128,0.652
		l1.129-0.652V38.62l-1.129-0.651l-1.128,0.651V39.923z"/>
</g>
</svg>
