<?xml version="1.0" encoding="utf-8"?>
<!-- Generator: Adobe Illustrator 18.0.0, SVG Export Plug-In . SVG Version: 6.00 Build 0)  -->
<!DOCTYPE svg PUBLIC "-//W3C//DTD SVG 1.1//EN" "http://www.w3.org/Graphics/SVG/1.1/DTD/svg11.dtd">
<svg version="1.1" id="Icon_Set" xmlns="http://www.w3.org/2000/svg" xmlns:xlink="http://www.w3.org/1999/xlink" x="0px" y="0px"
	 viewBox="0 0 256 256" style="enable-background:new 0 0 256 256;" xml:space="preserve">
<style type="text/css">
	.st0{fill:#4C4372;}
	.st1{fill:#F0C48A;}
	.st2{fill:#FD919E;}
	.st3{fill:#D3E6F8;}
	.st4{fill:#A4CFF2;}
	.st5{fill:#FFFFFF;}
	.st6{fill:#7BABF1;}
	.st7{fill:#E8677D;}
</style>
<g>
	<g>
		<g>
			<circle class="st1" cx="128" cy="128" r="103.5"/>
		</g>
	</g>
	<g>
		<rect x="56.663" y="127.072" class="st4" width="141.855" height="82.854"/>
	</g>
	<g>
		<rect x="184.805" y="127.072" class="st6" width="13.714" height="82.854"/>
	</g>
	<g>
		<path class="st0" d="M198.519,212.927H56.663c-1.657,0-3-1.343-3-3v-82.854c0-1.657,1.343-3,3-3h141.855c1.657,0,3,1.343,3,3
			v82.854C201.519,211.584,200.176,212.927,198.519,212.927z M59.663,206.927h135.855v-76.854H59.663V206.927z"/>
	</g>
	<g>
		<g>
			<path class="st5" d="M128,196.887H71.195v-78.936h44.772c6.646,0,12.033,5.387,12.033,12.032V196.887z"/>
		</g>
		<g>
			<path class="st5" d="M184.805,196.887H128v-66.903c0-6.646,5.387-12.032,12.032-12.032h44.772V196.887z"/>
		</g>
	</g>
	<g>
		<path class="st0" d="M115.683,147.166H83.806c-1.657,0-3-1.343-3-3s1.343-3,3-3h31.876c1.657,0,3,1.343,3,3
			S117.339,147.166,115.683,147.166z"/>
	</g>
	<g>
		<path class="st0" d="M115.683,133.89H83.806c-1.657,0-3-1.343-3-3s1.343-3,3-3h31.876c1.657,0,3,1.343,3,3
			S117.339,133.89,115.683,133.89z"/>
	</g>
	<g>
		<path class="st0" d="M115.683,160.442H83.806c-1.657,0-3-1.343-3-3s1.343-3,3-3h31.876c1.657,0,3,1.343,3,3
			S117.339,160.442,115.683,160.442z"/>
	</g>
	<g>
		<path class="st0" d="M115.683,173.719H83.806c-1.657,0-3-1.343-3-3s1.343-3,3-3h31.876c1.657,0,3,1.343,3,3
			S117.339,173.719,115.683,173.719z"/>
	</g>
	<g>
		<path class="st0" d="M115.683,186.995H83.806c-1.657,0-3-1.343-3-3s1.343-3,3-3h31.876c1.657,0,3,1.343,3,3
			S117.339,186.995,115.683,186.995z"/>
	</g>
	<g>
		<rect x="174.313" y="117.951" class="st3" width="10.492" height="78.936"/>
	</g>
	<g>
		<path class="st0" d="M128,199.887H71.195c-1.657,0-3-1.343-3-3v-78.936c0-1.657,1.343-3,3-3h44.772
			c8.289,0,15.033,6.743,15.033,15.032v66.903C131,198.544,129.657,199.887,128,199.887z M74.195,193.887H125v-63.903
			c0-4.98-4.052-9.032-9.033-9.032H74.195V193.887z"/>
	</g>
	<g>
		<path class="st0" d="M184.805,199.887H128c-1.657,0-3-1.343-3-3v-66.903c0-8.289,6.743-15.032,15.032-15.032h44.772
			c1.657,0,3,1.343,3,3v78.936C187.805,198.544,186.462,199.887,184.805,199.887z M131,193.887h50.805v-72.936h-41.772
			c-4.98,0-9.032,4.052-9.032,9.032V193.887z"/>
	</g>
	<g>
		<path class="st0" d="M172.341,147.166h-31.877c-1.657,0-3-1.343-3-3s1.343-3,3-3h31.877c1.657,0,3,1.343,3,3
			S173.998,147.166,172.341,147.166z"/>
	</g>
	<g>
		<path class="st0" d="M172.341,160.442h-31.877c-1.657,0-3-1.343-3-3s1.343-3,3-3h31.877c1.657,0,3,1.343,3,3
			S173.998,160.442,172.341,160.442z"/>
	</g>
	<g>
		<path class="st0" d="M172.341,173.719h-31.877c-1.657,0-3-1.343-3-3s1.343-3,3-3h31.877c1.657,0,3,1.343,3,3
			S173.998,173.719,172.341,173.719z"/>
	</g>
	<g>
		<path class="st0" d="M172.341,186.995h-31.877c-1.657,0-3-1.343-3-3s1.343-3,3-3h31.877c1.657,0,3,1.343,3,3
			S173.998,186.995,172.341,186.995z"/>
	</g>
	<g>
		<path class="st0" d="M172.341,133.89h-31.877c-1.657,0-3-1.343-3-3s1.343-3,3-3h31.877c1.657,0,3,1.343,3,3
			S173.998,133.89,172.341,133.89z"/>
	</g>
	<g>
		<circle class="st2" cx="174.312" cy="81.472" r="6.791"/>
	</g>
	<g>
		<path class="st0" d="M174.313,91.264c-5.399,0-9.792-4.393-9.792-9.792s4.393-9.792,9.792-9.792c5.398,0,9.791,4.393,9.791,9.792
			S179.711,91.264,174.313,91.264z M174.313,77.68c-2.091,0-3.792,1.701-3.792,3.792s1.701,3.792,3.792,3.792
			s3.791-1.701,3.791-3.792S176.403,77.68,174.313,77.68z"/>
	</g>
	<g>
		<circle class="st2" cx="205.31" cy="99.736" r="6.791"/>
	</g>
	<g>
		<path class="st0" d="M205.31,109.528c-5.398,0-9.791-4.393-9.791-9.792s4.393-9.792,9.791-9.792c5.399,0,9.792,4.393,9.792,9.792
			S210.709,109.528,205.31,109.528z M205.31,95.944c-2.091,0-3.791,1.701-3.791,3.792s1.7,3.792,3.791,3.792
			s3.792-1.701,3.792-3.792S207.4,95.944,205.31,95.944z"/>
	</g>
	<g>
		<ellipse class="st5" cx="127.591" cy="78.901" rx="10.771" ry="32.827"/>
	</g>
	<g>
		
			<ellipse transform="matrix(-0.5192 0.8546 -0.8546 -0.5192 261.2719 10.8274)" class="st5" cx="127.591" cy="78.901" rx="10.771" ry="32.827"/>
	</g>
	<g>
		
			<ellipse transform="matrix(0.5192 0.8546 -0.8546 0.5192 128.7707 -71.1102)" class="st5" cx="127.591" cy="78.901" rx="10.771" ry="32.828"/>
	</g>
	<g>
		<path class="st0" d="M127.591,114.729c-9.462,0-13.771-18.571-13.771-35.827s4.31-35.828,13.771-35.828
			c9.041,0,13.771,18.023,13.771,35.828C141.362,96.157,137.053,114.729,127.591,114.729z M127.591,49.073
			c-2.324,0-7.771,10.148-7.771,29.828c0,19.679,5.447,29.827,7.771,29.827s7.771-10.148,7.771-29.827
			C135.362,59.222,129.915,49.073,127.591,49.073z"/>
	</g>
	<g>
		<path class="st0" d="M149.639,101.278c-7.353,0-18.268-3.966-29.199-10.608c-7.758-4.714-14.478-10.17-18.921-15.363
			c-6.605-7.72-6.118-12.424-4.546-15.01c1.046-1.722,3.381-3.772,8.571-3.772c7.352,0,18.267,3.965,29.198,10.607
			c14.747,8.96,28.381,22.287,23.468,30.373C157.164,99.227,154.828,101.278,149.639,101.278z M105.543,62.524
			c-2.006,0-3.174,0.445-3.443,0.888c-0.459,0.757,0.214,3.596,3.978,7.994c4.041,4.723,10.248,9.743,17.478,14.137
			c9.732,5.914,19.971,9.735,26.083,9.735c2.006,0,3.174-0.446,3.443-0.889c1.206-1.986-4.638-11.911-21.456-22.131
			C121.893,66.346,111.655,62.524,105.543,62.524z"/>
	</g>
	<g>
		<path class="st0" d="M105.543,101.278C105.543,101.278,105.544,101.278,105.543,101.278c-5.189,0-7.525-2.052-8.571-3.773
			c-1.572-2.586-2.059-7.29,4.546-15.01c4.443-5.193,11.163-10.649,18.921-15.363c10.933-6.643,21.848-10.607,29.199-10.607
			c5.189,0,7.525,2.051,8.57,3.772c4.913,8.086-8.721,21.413-23.468,30.373C123.812,97.313,112.896,101.278,105.543,101.278z
			 M149.639,62.524c-6.111,0-16.35,3.821-26.083,9.734c-7.229,4.394-13.437,9.414-17.478,14.137
			c-3.764,4.398-4.437,7.237-3.978,7.994c0.269,0.442,1.438,0.889,3.443,0.889c6.112,0,16.35-3.821,26.083-9.735
			c16.818-10.22,22.662-20.145,21.456-22.131C152.813,62.97,151.645,62.524,149.639,62.524z"/>
	</g>
	<g>
		<circle class="st2" cx="127.591" cy="78.901" r="12.362"/>
	</g>
	<g>
		<path class="st0" d="M127.591,94.264c-8.471,0-15.362-6.892-15.362-15.362s6.892-15.362,15.362-15.362s15.362,6.892,15.362,15.362
			S136.062,94.264,127.591,94.264z M127.591,69.539c-5.163,0-9.362,4.2-9.362,9.362s4.2,9.362,9.362,9.362
			c5.162,0,9.362-4.2,9.362-9.362S132.753,69.539,127.591,69.539z"/>
	</g>
	<g>
		<path class="st0" d="M174.313,120.951c-1.657,0-3-1.343-3-3V88.264c0-1.657,1.343-3,3-3s3,1.343,3,3v29.688
			C177.313,119.608,175.97,120.951,174.313,120.951z"/>
	</g>
	<g>
		<path class="st0" d="M184.805,120.951c-1.657,0-3-1.343-3-3V99.736c0-1.657,1.343-3,3-3h13.714c1.657,0,3,1.343,3,3s-1.343,3-3,3
			h-10.714v15.215C187.805,119.608,186.462,120.951,184.805,120.951z"/>
	</g>
	<g>
		<circle class="st2" cx="81.688" cy="81.472" r="6.792"/>
	</g>
	<g>
		<path class="st0" d="M81.688,91.264c-5.399,0-9.792-4.393-9.792-9.792s4.393-9.792,9.792-9.792s9.792,4.393,9.792,9.792
			S87.087,91.264,81.688,91.264z M81.688,77.68c-2.091,0-3.792,1.701-3.792,3.792s1.701,3.792,3.792,3.792s3.792-1.701,3.792-3.792
			S83.779,77.68,81.688,77.68z"/>
	</g>
	<g>
		<circle class="st2" cx="50.69" cy="99.736" r="6.792"/>
	</g>
	<g>
		<path class="st0" d="M50.69,109.528c-5.399,0-9.792-4.393-9.792-9.792s4.393-9.792,9.792-9.792s9.792,4.393,9.792,9.792
			S56.089,109.528,50.69,109.528z M50.69,95.944c-2.091,0-3.792,1.701-3.792,3.792s1.701,3.792,3.792,3.792s3.792-1.701,3.792-3.792
			S52.781,95.944,50.69,95.944z"/>
	</g>
	<g>
		<path class="st0" d="M81.688,120.951c-1.657,0-3-1.343-3-3V88.264c0-1.657,1.343-3,3-3s3,1.343,3,3v29.688
			C84.688,119.608,83.345,120.951,81.688,120.951z"/>
	</g>
	<g>
		<path class="st0" d="M71.195,120.951c-1.657,0-3-1.343-3-3v-15.215H57.482c-1.657,0-3-1.343-3-3s1.343-3,3-3h13.713
			c1.657,0,3,1.343,3,3v18.215C74.195,119.608,72.852,120.951,71.195,120.951z"/>
	</g>
</g>
</svg>
