<?xml version="1.0" encoding="utf-8"?>
<!-- Generator: Adobe Illustrator 16.0.0, SVG Export Plug-In . SVG Version: 6.00 Build 0)  -->
<!DOCTYPE svg PUBLIC "-//W3C//DTD SVG 1.1//EN" "http://www.w3.org/Graphics/SVG/1.1/DTD/svg11.dtd">
<svg version="1.1" id="icons" xmlns="http://www.w3.org/2000/svg" xmlns:xlink="http://www.w3.org/1999/xlink" x="0px" y="0px"
	 width="64px" height="64px" viewBox="0 0 64 64" enable-background="new 0 0 64 64" xml:space="preserve">
<g>
	<g>
		<polygon fill="#E6E9ED" points="32.01,1 28,1 27.99,1 1,1 1,27 15,27 17,29 19,27 27.99,27 28,27 32.01,27 45,27 47,29 49,27 
			63,27 63,1 		"/>
	</g>
	<path fill="#656D78" d="M32.01,4c-5.52,0-10,4.47-10,10c0,5.52,4.48,10,10,10c5.53,0,10-4.48,10-10C42.01,8.47,37.54,4,32.01,4z"/>
	<g>
		<path fill="#E6E9ED" d="M36.01,18v2h-8v-2c0-1.11,0.891-1.99,2-2h0.01h3.99C35.12,16,36.01,16.89,36.01,18z"/>
	</g>
	<g>
		<polygon fill="#CCD1D9" points="34.01,12 34.01,16 30.02,16 30.01,16 30.01,12 		"/>
	</g>
	<g>
		<path fill="#EAC6BB" d="M56,43.03V46c0,3.53-2.04,6.59-5,8.06C49.8,54.66,48.43,55,47,55c-1.44,0-2.79-0.34-4-0.94
			c-2.95-1.46-4.98-4.5-5-8.01V46v-2.97L41,41c0,0,3,1,6.5,1c3.49,0,5.5-1,5.5-1L56,43.03z"/>
	</g>
	<g>
		<path fill="#D3B1A9" d="M53,41l-0.003,0.001V46c0,3.53-2.04,6.59-5,8.06c-0.771,0.386-1.617,0.65-2.499,0.8
			C45.987,54.942,46.485,55,47,55c1.43,0,2.8-0.34,4-0.94c2.96-1.47,5-4.529,5-8.06v-2.97L53,41z"/>
	</g>
	<g>
		<path fill="#E6E9ED" d="M49,59l2-1h3c2.76,0,5,2.24,5,5H35c0-2.76,2.23-5,5-5h3l2,1l2-1L49,59z"/>
	</g>
	<g>
		<g>
			<path fill="#CCD1D9" d="M54,58h-3l0,0c2.758,0.002,4.997,2.241,4.997,5H59C59,60.24,56.76,58,54,58z"/>
		</g>
	</g>
	<g>
		<path fill="#965353" d="M56,40v3.03L53,41c0,0-2.01,1-5.5,1C44,42,41,41,41,41l-3,2.03V40c0-4.42,3.57-8,8-8h6v4
			C54.21,36,56,37.79,56,40z"/>
	</g>
	<g>
		<path fill="#844747" d="M52,39c0.552,0,1,0.448,1,1v1l3,2.03V40c0-2.21-1.79-4-4-4v-4h-3v4C49,37.657,50.343,39,52,39z"/>
	</g>
	<g>
		<path fill="#F5F7FA" d="M47,55c1.43,0,2.8-0.34,4-0.94V58l-2,1l-2-1l-2,1l-2-1v-3.94C44.21,54.66,45.56,55,47,55z"/>
	</g>
	<g>
		<path fill="#87BCF4" d="M17,55c1.43,0,2.8-0.34,4-0.94V58l-2,1l-2-1l-2,1l-2-1v-3.94C14.2,54.66,15.57,55,17,55z"/>
	</g>
	<g>
		<path fill="#F6BB42" d="M26,41.5V43c-1.93-2.53-3.34-3.12-4.97-2.97L24,35.67C25.26,37.28,26,39.31,26,41.5z"/>
	</g>
	<g>
		<path fill="#FFCE54" d="M24,35.67l-2.97,4.36c-2.66,0.25-5.92,2.5-13.03,1.609c-0.32-0.04-0.66-0.09-1-0.14
			c0-5.25,4.26-9.5,9.5-9.5C19.55,32,22.27,33.44,24,35.67z"/>
	</g>
	<g>
		<path fill="#5D9CEC" d="M19,59l2-1h3c2.77,0,5,2.24,5,5H5c0-2.76,2.24-5,5-5h3l2,1l2-1L19,59z"/>
	</g>
	<g>
		<path fill="#EAC6BB" d="M26,43v3c0,3.53-2.04,6.59-5,8.06C19.8,54.66,18.43,55,17,55s-2.8-0.34-4-0.94C10.04,52.59,8,49.53,8,46
			v-0.04v-4.32c7.11,0.891,10.37-1.359,13.03-1.609C22.66,39.88,24.07,40.47,26,43z"/>
	</g>
	<g>
		<path fill="#D3B1A9" d="M22.997,40.323V46c0,3.53-2.04,6.59-5,8.06c-0.771,0.386-1.616,0.649-2.499,0.8
			C15.989,54.942,16.488,55,17,55c1.43,0,2.8-0.34,4-0.94c2.96-1.47,5-4.529,5-8.06v-3C24.87,41.519,23.919,40.715,22.997,40.323z"
			/>
	</g>
	<g>
		<g>
			<path fill="#4A89DC" d="M24.03,58h-3l0,0c2.758,0.002,4.997,2.241,4.997,5h3.003C29.03,60.24,26.79,58,24.03,58z"/>
		</g>
	</g>
	<g>
		<path fill="#CCD1D9" d="M17.002,11H6.001c-0.553,0-1-0.447-1-1s0.447-1,1-1h11.001c0.553,0,1,0.447,1,1S17.555,11,17.002,11z"/>
	</g>
	<g>
		<path fill="#CCD1D9" d="M17.002,14H6.001c-0.553,0-1-0.447-1-1s0.447-1,1-1h11.001c0.553,0,1,0.447,1,1S17.555,14,17.002,14z"/>
	</g>
	<g>
		<path fill="#CCD1D9" d="M17.002,17H6.001c-0.553,0-1-0.447-1-1s0.447-1,1-1h11.001c0.553,0,1,0.447,1,1S17.555,17,17.002,17z"/>
	</g>
	<g>
		<path fill="#CCD1D9" d="M13.999,20H9.004c-0.553,0-1-0.447-1-1s0.447-1,1-1h4.995c0.553,0,1,0.447,1,1S14.552,20,13.999,20z"/>
	</g>
	<g>
		<path fill="#CCD1D9" d="M58.042,11H47.041c-0.553,0-1-0.447-1-1s0.447-1,1-1h11.001c0.553,0,1,0.447,1,1S58.595,11,58.042,11z"/>
	</g>
	<g>
		<path fill="#CCD1D9" d="M58.042,14H47.041c-0.553,0-1-0.447-1-1s0.447-1,1-1h11.001c0.553,0,1,0.447,1,1S58.595,14,58.042,14z"/>
	</g>
	<g>
		<path fill="#CCD1D9" d="M58.042,17H47.041c-0.553,0-1-0.447-1-1s0.447-1,1-1h11.001c0.553,0,1,0.447,1,1S58.595,17,58.042,17z"/>
	</g>
	<g>
		<path fill="#CCD1D9" d="M55.039,20h-4.995c-0.553,0-1-0.447-1-1s0.447-1,1-1h4.995c0.553,0,1,0.447,1,1S55.592,20,55.039,20z"/>
	</g>
	<path fill="#E6E9ED" d="M34.01,8h-0.996c-0.001,0.552-0.447,0.997-0.999,0.997S31.017,8.552,31.016,8c-0.002,0-0.004,0-0.006,0h-1
		c-0.55,0-1,0.45-1,1v2c0,0.55,0.45,1,1,1h4c0.55,0,1-0.45,1-1V9C35.01,8.45,34.56,8,34.01,8z"/>
</g>
</svg>
