<?xml version="1.0" encoding="utf-8"?>
<!-- Generator: Adobe Illustrator 22.0.0, SVG Export Plug-In . SVG Version: 6.00 Build 0)  -->
<svg version="1.1" xmlns="http://www.w3.org/2000/svg" xmlns:xlink="http://www.w3.org/1999/xlink" x="0px" y="0px"
	 viewBox="0 0 256 256" style="enable-background:new 0 0 256 256;" xml:space="preserve">
<style type="text/css">
	.st0{display:none;}
	.st1{display:inline;}
	.st2{fill:none;stroke:#6B1D1D;stroke-width:0.5;stroke-miterlimit:10;}
	.st3{fill:#3A312A;}
	.st4{fill:#87796F;}
	.st5{fill:#D5DE58;}
	.st6{fill:#695B51;}
	.st7{fill:#FCE8CB;}
	.st8{fill:#F16C7A;}
	.st9{fill:#8AC6DD;}
	.st10{fill:#DECAAD;}
	.st11{fill:#D6DF58;}
	.st12{fill-rule:evenodd;clip-rule:evenodd;fill:#FCE8CB;}
	.st13{fill:#F5978A;}
	.st14{fill:#D7E057;}
	.st15{fill-rule:evenodd;clip-rule:evenodd;fill:#87796F;}
	.st16{fill:#6CA8BF;}
	.st17{fill:#B9C239;}
	.st18{fill:#D34E5C;}
	.st19{fill:#FAE6CA;}
	.st20{fill:#F8E4C8;}
	.st21{fill:#8AC5DC;}
	.st22{fill:#EF6D7A;}
	.st23{fill:#EB6E7A;}
	.st24{fill:#89C4DB;}
	.st25{fill-rule:evenodd;clip-rule:evenodd;fill:#F16C7A;}
	.st26{fill:#F7E3C7;}
	.st27{fill:#F6E2C6;}
	.st28{fill:#ED6E7A;}
	.st29{fill:#8AC3DA;}
	.st30{fill:#D5DC57;}
	.st31{fill-rule:evenodd;clip-rule:evenodd;fill:#D7E057;}
	.st32{fill-rule:evenodd;clip-rule:evenodd;fill:#F8E4C8;}
	.st33{fill:#D4DB56;}
	.st34{fill:#F59689;}
	.st35{fill:#DDC9AC;}
	.st36{fill:#D24E5C;}
	.st37{fill:#6A5C52;}
	.st38{fill:#6CA6BE;}
	.st39{fill:#B8C136;}
	.st40{fill-rule:evenodd;clip-rule:evenodd;fill:#FAE6CA;}
</style>
<g id="Layer_2" class="st0">
	<g class="st1">
		<g>
			<line class="st2" x1="0" y1="4.829" x2="256" y2="4.829"/>
			<line class="st2" x1="0" y1="16.56" x2="256" y2="16.56"/>
			<line class="st2" x1="0" y1="28.29" x2="256" y2="28.29"/>
			<line class="st2" x1="0" y1="40.021" x2="256" y2="40.021"/>
			<line class="st2" x1="0" y1="51.751" x2="256" y2="51.751"/>
			<line class="st2" x1="0" y1="63.482" x2="256" y2="63.482"/>
			<line class="st2" x1="0" y1="75.213" x2="256" y2="75.213"/>
			<line class="st2" x1="0" y1="86.943" x2="256" y2="86.943"/>
			<line class="st2" x1="0" y1="98.674" x2="256" y2="98.674"/>
			<line class="st2" x1="0" y1="110.404" x2="256" y2="110.404"/>
			<line class="st2" x1="0" y1="122.135" x2="256" y2="122.135"/>
			<line class="st2" x1="0" y1="133.865" x2="256" y2="133.865"/>
			<line class="st2" x1="0" y1="145.596" x2="256" y2="145.596"/>
			<line class="st2" x1="0" y1="157.326" x2="256" y2="157.326"/>
			<line class="st2" x1="0" y1="169.057" x2="256" y2="169.057"/>
			<line class="st2" x1="0" y1="180.788" x2="256" y2="180.788"/>
			<line class="st2" x1="0" y1="192.518" x2="256" y2="192.518"/>
			<line class="st2" x1="0" y1="204.249" x2="256" y2="204.249"/>
			<line class="st2" x1="0" y1="215.979" x2="256" y2="215.979"/>
			<line class="st2" x1="0" y1="227.71" x2="256" y2="227.71"/>
			<line class="st2" x1="0" y1="239.44" x2="256" y2="239.44"/>
			<line class="st2" x1="0" y1="251.171" x2="256" y2="251.171"/>
		</g>
		<g>
			<line class="st2" x1="251.171" y1="0" x2="251.171" y2="256"/>
			<line class="st2" x1="239.44" y1="0" x2="239.44" y2="256"/>
			<line class="st2" x1="227.71" y1="0" x2="227.71" y2="256"/>
			<line class="st2" x1="215.979" y1="0" x2="215.979" y2="256"/>
			<line class="st2" x1="204.249" y1="0" x2="204.249" y2="256"/>
			<line class="st2" x1="192.518" y1="0" x2="192.518" y2="256"/>
			<line class="st2" x1="180.788" y1="0" x2="180.788" y2="256"/>
			<line class="st2" x1="169.057" y1="0" x2="169.057" y2="256"/>
			<line class="st2" x1="157.326" y1="0" x2="157.326" y2="256"/>
			<line class="st2" x1="145.596" y1="0" x2="145.596" y2="256"/>
			<line class="st2" x1="133.865" y1="0" x2="133.865" y2="256"/>
			<line class="st2" x1="122.135" y1="0" x2="122.135" y2="256"/>
			<line class="st2" x1="110.404" y1="0" x2="110.404" y2="256"/>
			<line class="st2" x1="98.674" y1="0" x2="98.674" y2="256"/>
			<line class="st2" x1="86.943" y1="0" x2="86.943" y2="256"/>
			<line class="st2" x1="75.213" y1="0" x2="75.213" y2="256"/>
			<line class="st2" x1="63.482" y1="0" x2="63.482" y2="256"/>
			<line class="st2" x1="51.751" y1="0" x2="51.751" y2="256"/>
			<line class="st2" x1="40.021" y1="0" x2="40.021" y2="256"/>
			<line class="st2" x1="28.29" y1="0" x2="28.29" y2="256"/>
			<line class="st2" x1="16.56" y1="0" x2="16.56" y2="256"/>
			<line class="st2" x1="4.829" y1="0" x2="4.829" y2="256"/>
		</g>
	</g>
</g>
<g id="Layer_1">
	<g>
		<polygon class="st9" points="180.613,192.479 16.5,192.479 16.5,239.479 239.5,239.479 239.5,192.479 193.387,192.479 		"/>
		<path class="st3" d="M239.5,240.979h-223c-0.829,0-1.5-0.671-1.5-1.5v-47c0-0.829,0.671-1.5,1.5-1.5h164.113
			c0.829,0,1.5,0.671,1.5,1.5s-0.671,1.5-1.5,1.5H18v44h220v-44h-44.613c-0.829,0-1.5-0.671-1.5-1.5s0.671-1.5,1.5-1.5H239.5
			c0.829,0,1.5,0.671,1.5,1.5v47C241,240.307,240.329,240.979,239.5,240.979z"/>
		<path class="st11" d="M47.911,26.198c0,0,3.408,12.659,13.222,13.246c0,0-13.1,4.525-13.321,14.202
			c0,0-2.578-13.572-12.925-14.059C34.887,39.588,46.937,37.762,47.911,26.198z"/>
		<path class="st3" d="M47.811,55.146c-0.713,0-1.335-0.506-1.472-1.217c-0.024-0.124-2.495-12.417-11.523-12.842
			c-0.771-0.037-1.388-0.651-1.428-1.421c-0.04-0.771,0.511-1.445,1.273-1.561c0.441-0.069,10.894-1.817,11.754-12.032
			c0.061-0.725,0.634-1.301,1.359-1.367c0.737-0.056,1.393,0.399,1.583,1.101c0.032,0.116,3.259,11.626,11.863,12.14
			c0.714,0.043,1.298,0.584,1.396,1.292c0.098,0.708-0.319,1.388-0.994,1.623c-0.121,0.042-12.118,4.311-12.312,12.819
			c-0.018,0.767-0.61,1.396-1.375,1.459C47.895,55.145,47.853,55.146,47.811,55.146z M40.07,39.417
			c3.878,1.969,6.23,5.746,7.587,8.876c2.026-4.021,5.941-6.787,8.949-8.427c-4.134-1.842-6.783-5.651-8.334-8.722
			C46.479,35.504,43,38.012,40.07,39.417z"/>
		<path class="st11" d="M26.212,43.179c0,0,2.411,8.954,9.352,9.369c0,0-9.266,3.201-9.422,10.045c0,0-1.824-9.6-9.142-9.944
			C17,52.65,25.524,51.358,26.212,43.179z"/>
		<path class="st3" d="M26.141,64.094c-0.713,0-1.337-0.507-1.472-1.22c-0.016-0.082-1.704-8.441-7.739-8.726
			c-0.77-0.037-1.387-0.651-1.427-1.421c-0.04-0.771,0.511-1.445,1.273-1.561c0.296-0.047,7.364-1.243,7.942-8.113
			c0.061-0.726,0.635-1.303,1.36-1.368c0.732-0.066,1.392,0.4,1.582,1.101l0,0c0.021,0.079,2.227,7.92,7.994,8.264
			c0.715,0.043,1.299,0.584,1.396,1.293c0.098,0.709-0.319,1.388-0.996,1.622c-0.081,0.028-8.282,2.953-8.413,8.662
			c-0.018,0.767-0.611,1.397-1.376,1.461C26.224,64.092,26.182,64.094,26.141,64.094z M21.622,52.566
			c2.107,1.333,3.523,3.395,4.447,5.28c1.376-2.232,3.515-3.872,5.365-4.973c-2.287-1.269-3.884-3.35-4.941-5.224
			C25.319,49.937,23.478,51.525,21.622,52.566z"/>
		<path class="st11" d="M26.212,16.521c0,0,2.411,8.954,9.352,9.37c0,0-9.266,3.201-9.422,10.045c0,0-1.824-9.6-9.142-9.944
			C17,25.992,25.524,24.701,26.212,16.521z"/>
		<path class="st3" d="M26.141,37.437c-0.713,0-1.337-0.507-1.472-1.22c-0.016-0.082-1.704-8.442-7.739-8.726
			c-0.771-0.037-1.388-0.651-1.428-1.421c-0.04-0.771,0.511-1.445,1.273-1.56c0.296-0.047,7.364-1.243,7.942-8.114
			c0.061-0.726,0.635-1.303,1.36-1.368c0.732-0.067,1.392,0.399,1.582,1.102l0,0c0.021,0.079,2.227,7.92,7.994,8.265
			c0.714,0.043,1.299,0.584,1.396,1.293c0.098,0.709-0.32,1.388-0.996,1.622c-0.081,0.028-8.282,2.952-8.413,8.662
			c-0.018,0.767-0.611,1.397-1.376,1.461C26.224,37.435,26.182,37.437,26.141,37.437z M21.622,25.909
			c2.107,1.332,3.523,3.394,4.447,5.28c1.376-2.232,3.515-3.872,5.365-4.972c-2.287-1.269-3.884-3.35-4.941-5.224
			C25.319,23.279,23.478,24.868,21.622,25.909z"/>
		<path class="st19" d="M238.978,88.47l-0.078,45.619h-76.274c-2.628,0-5.223,0.537-7.639,1.577
			c-11.161,4.798-45.306,19.001-58.525,19.001l-15.937,2.639l-46.089,24.001c-2.147,1.118-4.485,1.61-6.789,1.51
			c-5.972-0.268-10.804-5.503-10.647-11.475c0.054-2.007,18.67-45.798,25.933-62.811c2.2-5.154,6.322-9.254,11.497-11.407
			c4.664-1.94,9.635-3.111,14.721-3.443l113.829-3.489L238.978,88.47z"/>
		<path class="st3" d="M28.227,184.33c-0.215,0-0.43-0.005-0.645-0.014c-6.727-0.302-12.258-6.261-12.081-13.013
			c0.017-0.617,0.067-2.492,26.053-63.36c2.372-5.556,6.74-9.89,12.3-12.203c4.848-2.017,9.962-3.213,15.199-3.555l169.878-5.215
			c0.412-0.007,0.8,0.141,1.091,0.423c0.291,0.283,0.455,0.672,0.455,1.079l-0.078,45.619c-0.001,0.828-0.672,1.498-1.5,1.498
			h-76.274c-2.434,0-4.804,0.489-7.045,1.454c-13.335,5.732-45.709,19.039-58.993,19.123l-15.582,2.581l-45.877,23.89
			C32.994,183.75,30.62,184.33,28.227,184.33z M18.499,171.457c-0.093,5.124,4.111,9.632,9.216,9.862
			c2.087,0.088,4.168-0.373,6.028-1.342l46.089-24.001c0.141-0.073,0.291-0.124,0.448-0.149l15.937-2.64
			c0.081-0.013,0.163-0.02,0.245-0.02c13.001,0,47.629-14.451,57.933-18.879c2.617-1.127,5.387-1.699,8.231-1.699h74.776
			l0.073-42.572L69.197,95.182c-4.856,0.318-9.647,1.438-14.19,3.329c-4.833,2.011-8.63,5.779-10.693,10.611
			C28.854,145.331,18.987,169.159,18.499,171.457z"/>
		<path class="st22" d="M125.643,36.648l3.235-6.4c2.336-4.622,0.483-10.263-4.139-12.599l0,0
			c-4.622-2.336-10.263-0.483-12.599,4.139l-3.235,6.4L125.643,36.648z"/>
		<path class="st3" d="M125.642,38.148c-0.228,0-0.458-0.052-0.676-0.162l-16.738-8.46c-0.355-0.18-0.624-0.493-0.748-0.871
			c-0.124-0.378-0.093-0.79,0.086-1.145l3.235-6.4c1.311-2.593,3.553-4.521,6.312-5.427c2.761-0.907,5.708-0.684,8.302,0.626
			c2.593,1.311,4.521,3.552,5.427,6.312c0.907,2.76,0.684,5.708-0.626,8.302l-3.235,6.4
			C126.718,37.847,126.19,38.148,125.642,38.148z M110.92,27.526l14.061,7.107l2.558-5.062c0.949-1.878,1.11-4.013,0.454-6.012
			c-0.657-1.999-2.053-3.623-3.931-4.571c-1.878-0.95-4.013-1.11-6.012-0.454c-1.999,0.657-3.623,2.053-4.571,3.931L110.92,27.526z"
			/>
		<polygon class="st21" points="87.37,70.451 32.523,178.088 49.261,186.548 125.643,36.648 108.905,28.188 93.426,58.565 		"/>
		<path class="st3" d="M49.26,188.048c-0.228,0-0.458-0.052-0.676-0.162l-16.738-8.46c-0.356-0.18-0.626-0.494-0.749-0.873
			c-0.124-0.379-0.092-0.791,0.089-1.147L86.033,69.77c0.376-0.739,1.281-1.032,2.018-0.655c0.738,0.376,1.031,1.279,0.655,2.018
			L34.542,177.428l14.061,7.106l75.021-147.227l-14.061-7.106l-14.8,29.045c-0.376,0.738-1.28,1.032-2.018,0.655
			c-0.738-0.376-1.031-1.279-0.655-2.018l15.479-30.377c0.375-0.736,1.276-1.029,2.013-0.658l16.738,8.46
			c0.355,0.18,0.625,0.494,0.749,0.873c0.124,0.379,0.092,0.792-0.089,1.147l-76.382,149.9
			C50.333,187.749,49.806,188.048,49.26,188.048z"/>
		<polygon class="st22" points="70.589,103.384 32.523,178.088 49.261,186.548 87.327,111.843 		"/>
		<path class="st3" d="M49.26,188.048c-0.228,0-0.458-0.052-0.676-0.162l-16.738-8.46c-0.356-0.18-0.626-0.494-0.749-0.873
			c-0.124-0.379-0.092-0.791,0.089-1.147l38.066-74.704c0.375-0.736,1.273-1.031,2.013-0.658l16.738,8.46
			c0.355,0.18,0.625,0.494,0.749,0.873c0.124,0.379,0.092,0.791-0.089,1.147l-38.066,74.705
			C50.333,187.749,49.806,188.048,49.26,188.048z M34.542,177.428l14.061,7.106l36.704-72.032l-14.061-7.106L34.542,177.428z"/>
		<polygon class="st11" points="49.261,186.548 32.523,178.088 29.944,203.979 		"/>
		<path class="st3" d="M29.943,205.479c-0.23,0-0.462-0.053-0.676-0.161c-0.553-0.28-0.877-0.871-0.816-1.488l2.58-25.891
			c0.049-0.492,0.337-0.928,0.771-1.166c0.435-0.238,0.958-0.246,1.398-0.024l16.738,8.46c0.441,0.223,0.744,0.649,0.81,1.14
			c0.065,0.49-0.115,0.981-0.482,1.313l-19.317,17.431C30.667,205.347,30.307,205.479,29.943,205.479z M33.799,180.414
			l-1.978,19.851L46.632,186.9L33.799,180.414z"/>
		<path class="st19" d="M100.672,126.469l-50.366,23.119c-7.542,3.462-10.495,12.645-6.384,19.853l0,0
			c3.609,6.33,11.438,8.881,18.083,5.891l77.938-33.5L100.672,126.469z"/>
		<path class="st3" d="M56.173,178.098c-5.446,0-10.678-2.868-13.554-7.914c-2.167-3.8-2.642-8.368-1.303-12.533
			c1.339-4.165,4.388-7.601,8.364-9.426l50.366-23.119c0.755-0.345,1.644-0.015,1.989,0.737c0.346,0.753,0.015,1.644-0.737,1.989
			l-50.366,23.119c-3.261,1.496-5.662,4.202-6.76,7.618c-1.098,3.416-0.724,7.013,1.053,10.129
			c3.243,5.689,10.192,7.955,16.165,5.267l77.961-33.509c0.761-0.326,1.643,0.025,1.97,0.786c0.327,0.761-0.024,1.643-0.786,1.97
			l-77.938,33.5C60.511,177.65,58.325,178.098,56.173,178.098z"/>
		<polygon class="st22" points="239,76.752 238.873,147.767 182.978,148.52 182.978,76.752 		"/>
		<path class="st3" d="M182.979,150.02c-0.394,0-0.772-0.155-1.054-0.432c-0.286-0.282-0.446-0.666-0.446-1.068V76.752
			c0-0.398,0.158-0.779,0.439-1.061c0.281-0.281,0.663-0.439,1.061-0.439l56.021,0c0.398,0,0.78,0.158,1.061,0.44
			c0.281,0.282,0.439,0.664,0.439,1.062l-0.127,71.015c-0.001,0.82-0.66,1.486-1.48,1.498l-55.895,0.753
			C182.992,150.02,182.985,150.02,182.979,150.02z M184.479,78.252V147l52.898-0.713l0.122-68.035L184.479,78.252z"/>
		<polygon class="st22" points="239,76.749 238.978,88.47 238.899,134.089 238.877,147.767 182.98,148.516 182.98,76.749 		"/>
		<path class="st3" d="M182.98,150.016c-0.394,0-0.772-0.155-1.054-0.432c-0.286-0.282-0.446-0.667-0.446-1.068V76.749
			c0-0.829,0.671-1.5,1.5-1.5H239c0.398,0,0.78,0.158,1.061,0.44c0.282,0.282,0.44,0.664,0.439,1.062l-0.123,71.017
			c-0.001,0.82-0.66,1.486-1.48,1.498L183,150.016C182.993,150.016,182.987,150.016,182.98,150.016z M184.48,78.249v68.747
			l52.899-0.709l0.118-68.038H184.48z"/>
		<path class="st21" d="M153.631,103.263l0-17.606c0-4.918,3.987-8.906,8.906-8.906l20.442,0l0,71.768h-20.442
			c-4.918,0-8.906-3.987-8.906-8.906l0-19.946L153.631,103.263z"/>
		<path class="st3" d="M182.979,150.02h-20.442c-5.738,0-10.406-4.668-10.406-10.406V85.658c0-5.737,4.668-10.405,10.406-10.406
			l20.442,0c0.829,0,1.5,0.671,1.5,1.5v71.768C184.479,149.349,183.807,150.02,182.979,150.02z M162.537,78.252
			c-4.084,0-7.406,3.323-7.406,7.406v53.957c0,4.083,3.322,7.406,7.406,7.406h18.942V78.252L162.537,78.252z"/>
		<path class="st4" d="M161.587,133.636c0,3.71,3.007,6.718,6.718,6.718c3.71,0,6.718-3.008,6.718-6.718
			c0-3.71-3.008-6.717-6.718-6.718C164.594,126.918,161.587,129.926,161.587,133.636z"/>
		<path class="st3" d="M168.305,141.854c-4.531,0-8.218-3.686-8.218-8.217c0-4.531,3.687-8.218,8.218-8.218
			c4.531,0,8.218,3.686,8.218,8.218C176.523,138.167,172.836,141.854,168.305,141.854z M168.305,128.419
			c-2.877,0-5.218,2.341-5.218,5.218c0,2.877,2.341,5.217,5.218,5.217c2.877,0,5.218-2.34,5.218-5.217
			C173.523,130.759,171.182,128.419,168.305,128.419z"/>
		<path class="st3" d="M30.5,231.979c-0.829,0-1.5-0.671-1.5-1.5v-27c0-0.829,0.671-1.5,1.5-1.5s1.5,0.671,1.5,1.5v27
			C32,231.307,31.329,231.979,30.5,231.979z"/>
		<rect x="223" y="193.979" class="st16" width="15" height="44"/>
		<polygon class="st18" points="237.5,78.249 237.38,146.289 222.375,146.49 222.38,146.289 222.5,78.249 		"/>
	</g>
</g>
</svg>
