<svg xmlns="http://www.w3.org/2000/svg" viewBox="0 0 48 48"><defs><style>.cls-1{fill:#dad7e5;}.cls-2{fill:#edebf2;}.cls-3{fill:#6fabe6;}.cls-4{fill:#82bcf4;}.cls-5{fill:#425b72;}.cls-6{fill:#db5669;}.cls-7{fill:#f26674;}</style></defs><title>Web QnA</title><g id="Web_QnA" data-name="Web QnA"><path class="cls-1" d="M47,9c0,37.11.15,34.52-.36,35.64A4,4,0,0,1,43,47H5a4,4,0,0,1-4-4V9Z"/><path class="cls-2" d="M47,9c0,37.11.15,34.52-.36,35.64A3.93,3.93,0,0,1,45,45H11a8,8,0,0,1-8-8V9Z"/><path class="cls-3" d="M47,5V9H1V5A4,4,0,0,1,3.36,1.36C4.48.85,1.45,1,43,1A4,4,0,0,1,47,5Z"/><path class="cls-4" d="M47,5V7H6A3,3,0,0,1,3,4a5.45,5.45,0,0,1,.36-2.64A3.93,3.93,0,0,1,5,1H43A4,4,0,0,1,47,5Z"/><path class="cls-5" d="M43,6a1,1,0,1,1,.38-1.92A1,1,0,0,1,43,6Z"/><path class="cls-5" d="M39,6a1,1,0,0,1-.83-1.56,1,1,0,0,1,1.54-.15A1,1,0,0,1,39,6Z"/><path class="cls-5" d="M35,6a1,1,0,1,1,.92-1.38A1,1,0,0,1,35,6Z"/><path class="cls-5" d="M23,6H5A1,1,0,0,1,5,4H23A1,1,0,0,1,23,6Z"/><path class="cls-3" d="M42,21V36l-5-2H27a3,3,0,0,1-3-3V21a3,3,0,0,1,2-2.82c.66-.26,0-.18,13-.18A3,3,0,0,1,42,21Z"/><path class="cls-4" d="M42,21V32H30a4,4,0,0,1-4-4V18.18A2.77,2.77,0,0,1,27,18H39A3,3,0,0,1,42,21Z"/><path class="cls-6" d="M24,23c0,10.73.07,10.34-.18,11A3,3,0,0,1,21,36H11L6,38V23a3,3,0,0,1,3-3H21A3,3,0,0,1,24,23Z"/><path class="cls-7" d="M24,23c0,10.73.07,10.34-.18,11H12a4,4,0,0,1-4-4V20.18A2.77,2.77,0,0,1,9,20H21A3,3,0,0,1,24,23Z"/><path class="cls-2" d="M19,27a4,4,0,0,0-8,0v2a4,4,0,0,0,6,3.43l.27.28a1,1,0,0,0,1.42-1.42L18.43,31C19.15,29.81,19,28.94,19,27Zm-2.29,2.29a1,1,0,0,0-1.42,1.42l.22.22A2,2,0,0,1,13,29V27a2,2,0,0,1,4,0C17,29.92,17,29.62,16.71,29.29Z"/><path class="cls-2" d="M36.94,29.65C33.69,21,33.93,21,33,21s-.71.05-3.94,8.65a1,1,0,0,0,1.88.7l.5-1.35h3.12c.49,1.31.59,2,1.44,2A1,1,0,0,0,36.94,29.65ZM32.19,27,33,24.85,33.81,27Z"/></g></svg>